<?xml version="1.0" encoding="UTF-8"?>
<svg xmlns="http://www.w3.org/2000/svg" xmlns:xlink="http://www.w3.org/1999/xlink" width="30pt" height="43pt" viewBox="0 0 30 43" version="1.1">
<g id="surface1">
<path style=" stroke:none;fill-rule:nonzero;fill:rgb(0%,0%,0%);fill-opacity:1;" d="M 4.242188 4.890625 L 4.238281 4.949219 L 4.226562 5.011719 C 4.160156 5.101562 4.09375 5.1875 4.027344 5.277344 C 3.960938 5.507812 3.890625 5.738281 3.824219 5.972656 L 3.648438 6.070312 L 3.394531 6.109375 L 3.265625 6.105469 L 3.148438 6.054688 L 3.050781 5.972656 L 2.988281 5.894531 L 2.941406 5.816406 L 2.824219 5.566406 L 2.789062 5.507812 L 2.738281 5.445312 L 2.683594 5.386719 L 2.636719 5.359375 L 2.589844 5.34375 L 2.554688 5.339844 L 2.519531 5.339844 L 2.457031 5.355469 L 2.429688 5.371094 L 2.296875 5.445312 L 2.269531 5.457031 L 2.234375 5.464844 L 2.195312 5.464844 L 2.15625 5.457031 L 2.089844 5.4375 L 2.035156 5.402344 L 1.992188 5.371094 L 1.964844 5.351562 L 1.945312 5.34375 L 1.671875 5.265625 L 1.625 5.257812 L 1.582031 5.269531 L 1.5 5.300781 L 1.207031 5.378906 L 1.039062 5.480469 L 0.867188 5.558594 L 0.847656 5.582031 L 0.828125 5.601562 L 0.789062 5.652344 L 0.773438 5.679688 L 0.765625 5.730469 L 0.765625 5.800781 L 0.785156 5.945312 L 0.78125 6.015625 L 0.757812 6.082031 L 0.671875 6.171875 L 0.679688 6.34375 L 0.734375 6.507812 L 0.808594 6.652344 L 1.007812 6.910156 L 1.042969 6.964844 L 1.050781 7.035156 L 1.03125 7.105469 L 0.941406 7.261719 L 0.914062 7.355469 L 0.910156 7.695312 L 0.925781 7.867188 L 0.949219 7.988281 L 1.128906 8.4375 L 1.164062 8.539062 L 1.125 8.671875 L 1.15625 8.941406 L 1.046875 9.238281 L 1.136719 9.484375 L 1.230469 9.78125 L 1.390625 10.101562 L 1.441406 10.246094 L 1.433594 10.414062 L 1.445312 10.570312 L 1.511719 10.863281 L 1.535156 11.109375 L 1.535156 11.238281 L 1.488281 11.484375 L 1.464844 11.503906 L 1.40625 11.535156 L 1.332031 11.546875 L 1.265625 11.546875 L 1.214844 11.570312 L 1.195312 11.65625 L 1.21875 11.710938 L 1.316406 11.820312 L 1.335938 11.90625 L 1.316406 11.964844 L 1.195312 12.117188 L 1.246094 12.316406 C 1.265625 12.59375 1.285156 12.871094 1.308594 13.148438 L 1.34375 13.222656 L 1.425781 13.25 L 1.496094 13.285156 L 1.554688 13.371094 L 1.59375 13.46875 L 1.613281 13.542969 L 1.625 13.714844 L 1.6875 13.828125 L 1.796875 13.898438 L 1.933594 13.917969 L 2.269531 14.59375 L 2.289062 14.617188 L 2.308594 14.644531 L 2.316406 14.691406 L 2.308594 14.835938 L 2.316406 14.878906 L 2.375 14.976562 L 2.445312 15.03125 L 2.5 15.089844 L 2.523438 15.214844 L 2.53125 15.21875 L 2.582031 15.277344 L 2.558594 15.367188 L 2.53125 15.460938 L 2.539062 15.519531 L 2.554688 15.59375 L 2.574219 15.636719 L 2.601562 15.664062 L 2.632812 15.671875 L 2.699219 15.671875 L 2.726562 15.675781 L 2.746094 15.683594 L 2.765625 15.699219 L 2.804688 15.746094 L 2.832031 15.765625 L 2.933594 15.832031 L 2.957031 15.855469 L 3.035156 15.945312 L 3.460938 16.25 L 3.546875 16.296875 L 3.597656 16.339844 L 3.65625 16.402344 L 3.820312 16.507812 L 3.820312 16.589844 L 3.851562 16.71875 L 3.808594 16.800781 L 3.648438 16.921875 L 3.476562 17.085938 L 3.3125 17.292969 L 3.214844 17.320312 L 2.691406 17.6875 L 2.507812 17.746094 L 2.425781 17.828125 L 2.371094 17.941406 L 2.332031 18.199219 L 2.269531 18.316406 L 2.191406 18.414062 L 2.105469 18.496094 L 1.90625 18.628906 L 1.824219 18.710938 L 1.792969 18.84375 L 1.808594 18.917969 L 1.851562 18.984375 L 1.953125 19.097656 L 1.957031 19.152344 L 1.917969 19.207031 L 1.824219 19.28125 L 1.835938 19.375 L 1.835938 19.527344 L 1.855469 19.675781 L 1.917969 19.738281 L 1.933594 19.773438 L 1.941406 19.84375 L 1.933594 19.914062 L 1.917969 19.945312 L 1.890625 19.976562 L 1.910156 20.042969 L 1.96875 20.152344 L 1.933594 20.238281 L 1.875 20.308594 L 1.816406 20.394531 L 1.792969 20.542969 L 1.796875 20.671875 L 1.792969 20.738281 L 1.777344 20.769531 L 1.730469 20.804688 L 1.730469 20.882812 L 1.757812 21.015625 L 1.738281 21.09375 L 1.722656 21.132812 L 1.652344 21.222656 L 1.550781 21.320312 L 1.5 21.382812 L 1.449219 21.53125 L 1.261719 21.882812 L 1.171875 21.953125 L 1.042969 21.988281 L 0.792969 22.007812 L 0.746094 22.039062 L 0.769531 22.105469 L 0.820312 22.183594 L 0.863281 22.230469 L 0.890625 22.296875 L 0.871094 22.347656 L 0.8125 22.414062 L 0.761719 22.578125 L 0.773438 22.667969 L 0.933594 22.847656 L 0.96875 22.929688 L 1.019531 23.273438 L 0.996094 23.535156 L 0.917969 23.757812 L 0.898438 23.964844 L 1.050781 24.175781 L 1.253906 24.253906 L 1.71875 24.289062 L 1.894531 24.382812 L 2.039062 24.589844 L 2.058594 24.664062 L 2.054688 24.722656 L 2.042969 24.78125 L 2.039062 24.855469 L 2.117188 25.238281 L 2.105469 25.367188 L 2.046875 25.445312 L 1.855469 25.574219 L 1.789062 25.652344 L 1.769531 25.757812 L 1.777344 25.867188 L 1.769531 25.972656 L 1.722656 26.0625 L 1.503906 26.113281 L 0.96875 26.003906 L 0.777344 26.144531 C 0.757812 26.21875 0.738281 26.292969 0.71875 26.367188 L 0.675781 26.472656 L 0.617188 26.574219 L 0.578125 26.617188 L 0.460938 26.71875 L 0.4375 26.757812 L 0.355469 26.917969 L 0.398438 27.039062 L 0.390625 27.167969 L 0.320312 27.410156 L 0.253906 27.476562 L 0.257812 27.476562 L 0.28125 27.488281 C 6.664062 29.78125 13.058594 32.035156 19.425781 34.363281 L 19.734375 34.398438 L 29.738281 34.398438 L 29.738281 34.371094 C 29.742188 24.761719 29.742188 15.152344 29.742188 5.546875 C 29.742188 3.703125 29.746094 1.863281 29.746094 0.0195312 C 21.246094 0.0117188 12.75 0.00390625 4.25 0 C 4.25 1.628906 4.246094 3.261719 4.242188 4.890625 Z M 4.242188 4.890625 "/>
</g>
</svg>
