<svg xmlns="http://www.w3.org/2000/svg" xmlns:xlink="http://www.w3.org/1999/xlink" version="1.1" x="0px" y="0px" viewBox="0 0 100 125" style="enable-background:new 0 0 100 100;" xml:space="preserve"><path d="M5.58182,44.49306C5.38788,44.82147,5.19394,45.14987,5,45.47828  c0.30255,0.35685,0.60509,0.7137,0.90764,1.07055c0.17843-0.01034,0.35685-0.02069,0.53528-0.03103  c0.13705,0.07758,0.2741,0.15516,0.41115,0.23273c0.41633,0.70077,0.83265,1.40154,1.24898,2.10231  c0.56113,0.3103,1.12227,0.62061,1.6834,0.93091c0.41891,0.48356,0.83782,0.96712,1.25673,1.45068  c0.28186,0.17067,0.56372,0.34133,0.84558,0.512c0.19394,0.30772,0.38788,0.61544,0.58182,0.92316  c0.36978,0.27152,0.73956,0.54303,1.10934,0.81455c0.0181,0.11378,0.0362,0.22756,0.0543,0.34134  c0.50942,0.17842,1.01883,0.35685,1.52825,0.53527c0.56372,0.4939,1.12744,0.9878,1.69116,1.4817  c0.1655,0.56372,0.33099,1.12744,0.49649,1.69116c0.3103,0.39564,0.62061,0.79128,0.93091,1.18691  c0.06465,0.81713,0.1293,1.63427,0.19394,2.45141c0.38271,0.74731,0.76542,1.49463,1.14813,2.24195  c0.40857,0.3103,0.81714,0.62061,1.2257,0.93092c0.29479,0.10343,0.58958,0.20686,0.88437,0.3103  c0.11378,0.2198,0.22756,0.43961,0.34134,0.65941c0.38271,0.2379,0.76542,0.47579,1.14813,0.71369  c0.46546,0.1112,0.93091,0.22239,1.39637,0.33358c0.02069,0.09568,0.04137,0.19135,0.06206,0.28703  c0.13188,0.1267,0.26376,0.25341,0.39564,0.38012c0.39305,0.07499,0.7861,0.14999,1.17916,0.22497  c0.17584,0.22239,0.35168,0.44478,0.52752,0.66716c0.20946,0.1086,0.41891,0.21721,0.62837,0.32581  c0.09309-0.05171,0.18618-0.10343,0.27927-0.15514c0.05947,0.10602,0.11895,0.21204,0.17843,0.31806  c0.46287,0.03362,0.92574,0.06723,1.38861,0.10085c0.01034-0.16032,0.02069-0.32064,0.03103-0.48097  c0.54821-0.46029,1.09641-0.92057,1.64462-1.38085c-0.07758-0.13447-0.15515-0.26894-0.23273-0.4034  c0.04137-0.18618,0.08275-0.37237,0.12412-0.55854c0.09826-0.0362,0.19653-0.07241,0.29479-0.10861  c0.08016-0.41891,0.16032-0.83781,0.24049-1.25673c0.29737-0.57406,0.59475-1.14812,0.89213-1.72219  c0.42408-0.09826,0.84817-0.19653,1.27225-0.29479c0.22756,0.03879,0.45512,0.07758,0.68267,0.11636  c0.16808-0.29479,0.33617-0.58958,0.50425-0.88437c0.3103,0.08016,0.62061,0.16032,0.93092,0.24049  c0.15774,0.13705,0.31548,0.2741,0.47321,0.41115c0.30513-0.05689,0.61027-0.11378,0.9154-0.17067  c0.77835,0.16808,1.55669,0.33616,2.33504,0.50425c0.54821-0.02845,1.09641-0.05689,1.64461-0.08534  c0.08275,0.30255,0.1655,0.6051,0.24825,0.90764c0.11119,0.02327,0.22238,0.04655,0.33358,0.06982c0,0.17067,0,0.34133,0,0.512  c0.12929-0.13188,0.25859-0.26376,0.38788-0.39564c0.00776,0.25083,0.01552,0.50166,0.02328,0.75248  c0.44218,0.19653,0.88437,0.39306,1.32655,0.58958c0.12412,0.2198,0.24825,0.4396,0.37236,0.6594  c0.43443,0.28445,0.86885,0.56889,1.30328,0.85334c0.08016,0.22238,0.16032,0.44476,0.24049,0.66715  c0.21721,0.17066,0.43442,0.34133,0.65164,0.512c0.12154,0.53268,0.24307,1.06538,0.36461,1.59807  c0.18618,0.23014,0.37236,0.46029,0.55855,0.69043c0.12412,0.42149,0.24825,0.84299,0.37237,1.26449  c0.29996,0.48356,0.59992,0.96712,0.89988,1.45068c0.15257,0.47321,0.30514,0.94643,0.4577,1.41965  c0.19653,0.25858,0.39305,0.51717,0.58958,0.77576c0.31289,0.15774,0.62578,0.31548,0.93867,0.47321  c0.22239,0.37753,0.44477,0.75507,0.66716,1.13261c0.10085,0,0.2017,0,0.30255,0c0.14481,0.48097,0.28962,0.96194,0.43443,1.44292  c0.3672,0.37237,0.73439,0.74473,1.10158,1.1171c0.39564,0.14999,0.79128,0.29996,1.18692,0.44994c0,0.19911,0,0.39822,0,0.59734  c0.15257,0.06724,0.30513,0.13447,0.4577,0.20171c-0.1474,0.4577-0.29479,0.91539-0.44218,1.37309  c0.19912,0.14998,0.39822,0.29996,0.59734,0.44994c0.01293,0.52752,0.02586,1.05504,0.03879,1.58256  c0.11119,0.25342,0.22238,0.50683,0.33358,0.76025c0.27669,0.27152,0.55338,0.54304,0.83006,0.81455  c0.1836,0.35686,0.3672,0.7137,0.55079,1.07055c0.04655,0.43184,0.09309,0.86368,0.13964,1.29552  c0.15257,0.28962,0.30513,0.57925,0.4577,0.86886c0.46804,0.20428,0.93609,0.40857,1.40413,0.61285  c0.23531-0.04913,0.47063-0.09826,0.70594-0.14739c0.31548,0.33616,0.63095,0.67233,0.94643,1.00848  c0.36461,0.075,0.72922,0.14999,1.09383,0.22498c0.25342,0.11636,0.50683,0.23273,0.76025,0.34909  c0.17843,0.13447,0.35685,0.26893,0.53527,0.4034c0.25342,0.12671,0.50683,0.25342,0.76025,0.38013  c0.88178-0.00517,1.76357-0.01035,2.64535-0.01552c0.35685,0.08533,0.71371,0.17067,1.07056,0.256  c0.36461,0.35944,0.72921,0.71887,1.09382,1.07832c0.18877,0.09826,0.37754,0.19653,0.56631,0.29478  c0.11378-0.01292,0.22755-0.02586,0.34134-0.03879c0-0.14998,0-0.29996,0-0.44994c0.1836-0.13187,0.36719-0.26376,0.55079-0.39564  c0.30255,0,0.60509,0,0.90765,0c-0.11611-0.88068-0.23222-1.76137-0.34833-2.64205c-0.14507-0.52345-0.29013-1.04689-0.4352-1.57033  c-0.13963-0.50684-0.27928-1.01366-0.41891-1.52049c-0.10204-0.51669-0.20407-1.03337-0.30611-1.55006v-2.29465  c0.15376-0.55182,0.30751-1.10363,0.46127-1.65545c0.31548-0.65939,0.63095-1.31879,0.94643-1.9782  c0.32065-0.4939,0.6413-0.9878,0.96194-1.4817c0.52494-0.65681,1.04987-1.31362,1.57481-1.97044  c0.52752-0.35943,1.05503-0.71887,1.58255-1.0783c0.31289-0.14739,0.62579-0.29479,0.93867-0.44219  c0.06723-0.23014,0.13447-0.46028,0.20169-0.69043c-0.00517-0.11377-0.01035-0.22755-0.01551-0.34133  c-0.16291-0.11895-0.32582-0.2379-0.48873-0.35685c-0.10603-0.16032-0.21204-0.32065-0.31806-0.48097  c-0.15257-0.03362-0.30513-0.06723-0.4577-0.10085c-0.13187-0.35944-0.26376-0.71888-0.39563-1.07832  c0.13705-0.05431,0.2741-0.1086,0.41115-0.16291c0.06464,0.2017,0.1293,0.4034,0.19394,0.60509  c0.29738,0.08792,0.59476,0.17584,0.89213,0.26376c0.0181-0.11636,0.0362-0.23273,0.05431-0.3491  c0.06723-0.0543,0.13447-0.1086,0.20169-0.16291c0.07241,0.07241,0.14481,0.14481,0.21722,0.21722  c0.31548-0.11378,0.63095-0.22756,0.94643-0.34133c0.12153-0.14739,0.24307-0.29479,0.3646-0.44218  c-0.14222,0.42149-0.28445,0.84299-0.42667,1.26449c0.28703-0.11378,0.57406-0.22756,0.86109-0.34133  c0.27928-0.05689,0.55855-0.11378,0.83783-0.17068c-0.12412,0.20428-0.24825,0.40857-0.37237,0.61285  c0.19911-0.0905,0.39822-0.18102,0.59734-0.27151c0.06724-0.256,0.13446-0.512,0.2017-0.76801  c0.59217-0.1086,1.18433-0.21721,1.77649-0.32581c0.37496-0.19912,0.74991-0.39822,1.12486-0.59734  c0.26118-0.11895,0.52234-0.2379,0.78352-0.35686c0.41374-0.41374,0.82748-0.82748,1.24122-1.24122  c-0.00775-0.14223-0.01551-0.28445-0.02327-0.42667c0.06723-0.10085,0.13447-0.20169,0.2017-0.30254  c0.04913-0.15774,0.09826-0.31548,0.14739-0.47322c0.20687-0.02586,0.41374-0.05171,0.62061-0.07758  c0.13187-0.10343,0.26376-0.20687,0.39563-0.3103c0.09568-0.17842,0.19136-0.35686,0.28704-0.53528  c0.14998-0.05688,0.29996-0.11377,0.44994-0.17066c0.00517-0.19653,0.01035-0.39306,0.01552-0.58958  c-0.08792-0.21721-0.17584-0.43443-0.26376-0.65164c-0.12412-0.15774-0.24824-0.31548-0.37236-0.47321  c-0.03879-0.2198-0.07758-0.43959-0.11637-0.65939c0.02586-0.09826,0.05173-0.19653,0.07758-0.29479  c0.06982-0.10861,0.13963-0.21722,0.20946-0.32582c0.10343,0.11637,0.20687,0.23273,0.3103,0.3491c0.05689,0,0.11378,0,0.17067,0  c0.1293-0.19394,0.25858-0.38789,0.38788-0.58183c0.13705-0.08275,0.2741-0.1655,0.41116-0.24825  c0.13447-0.02844,0.26892-0.05688,0.40339-0.08533c0.07758,0.06982,0.15516,0.13964,0.23273,0.20946  c-0.04137,0.32323-0.08275,0.64647-0.12412,0.9697c-0.17584,0.24048-0.35168,0.48097-0.52752,0.72146  c0.02328,0.36977,0.04655,0.73956,0.06982,1.10934c0.10085,0.05689,0.20169,0.11377,0.30254,0.17066  c0.62449-0.38788,1.24899-0.77576,1.87347-1.16364c0.93867-0.41116,1.87735-0.82232,2.81602-1.23347  c0.44994-0.01552,0.89988-0.03103,1.34982-0.04655c-0.11636-0.2017-0.23273-0.4034-0.34909-0.60509  c0.01164-0.19782,0.02328-0.39564,0.03491-0.59346c0.08533-0.06206,0.17066-0.12412,0.256-0.18618  c0.3297-0.55855,0.65939-1.1171,0.9891-1.67564c0-0.3297,0-0.6594,0-0.98909c-0.09309-0.21722-0.18618-0.43443-0.27927-0.65164  c-0.01939-0.27152-0.03879-0.54303-0.05818-0.81455c0.11636-0.17067,0.23273-0.34134,0.34909-0.512  c-0.07758-0.24824-0.15515-0.49649-0.23273-0.74474c0.12412-0.17067,0.24825-0.34133,0.37237-0.512  c0.24436-0.47709,0.48873-0.95418,0.73309-1.43128c0.07758-0.34521,0.15516-0.69043,0.23273-1.03564  c-0.0737-0.2017-0.1474-0.40339-0.2211-0.60509c0.12024-0.19394,0.24049-0.38788,0.36073-0.58182  c-0.05907-0.06156-0.11813-0.12312-0.17721-0.18468c0.04356-0.26038,0.0871-0.52076,0.13066-0.78114  c-0.14351,0.03879-0.28703,0.07758-0.43055,0.11636c-0.03879-0.23661-0.07758-0.47321-0.11636-0.70982  c-0.14351-0.17455-0.28703-0.34909-0.43054-0.52364c0.06206-0.13188,0.12411-0.26376,0.18618-0.39564  c-0.39565-0.56243-0.79128-1.12486-1.18691-1.68728c0.06593-0.28315,0.13187-0.56631,0.19781-0.84946  c-0.21333-0.50813-0.42667-1.01625-0.64-1.52437c-0.36073-0.36848-0.72146-0.73697-1.08219-1.10546  c0.00776-4.12706,0.01552-8.2541,0.02328-12.38116c-0.05431-0.1474-0.10861-0.29479-0.16292-0.44219  c-0.41503-0.03103-0.83006-0.06206-1.24509-0.09309c-0.43055,0.03491-0.8611,0.06982-1.29165,0.10473  c-0.07758-0.18231-0.15514-0.36461-0.23272-0.54691c-0.384-0.1823-0.76801-0.36461-1.15201-0.54691  c-0.29091-0.11637-0.58182-0.23273-0.87273-0.34909c-0.16679-0.03491-0.33358-0.06982-0.50037-0.10473  c-0.21333-0.12412-0.42667-0.24824-0.64001-0.37236c-0.08533-0.14739-0.17066-0.29479-0.256-0.44218  c-0.2754-0.11636-0.55079-0.23273-0.82619-0.34909c-0.31807-0.14739-0.63612-0.29479-0.95419-0.44218  c-0.128,0.24049-0.256,0.48097-0.384,0.72146c-0.35685,0.01164-0.7137,0.02327-1.07056,0.03491  c-0.36461-0.11249-0.72921-0.22497-1.09382-0.33745c-0.36849,0.03103-0.73697,0.06206-1.10546,0.09309  c-0.19006,0.16679-0.38013,0.33358-0.57018,0.50037c-0.21722-0.13964-0.43443-0.27928-0.65165-0.41891  c-0.06206,0.15903-0.12411,0.31806-0.18618,0.47709c-0.32194-0.05042-0.64388-0.10085-0.96582-0.15127  c-0.2754,0.24049-0.55079,0.48097-0.82619,0.72146c-0.17067-0.03103-0.34134-0.06206-0.512-0.09309  c-0.01939,0.16679-0.03879,0.33358-0.05818,0.50037c-0.1086,0.06594-0.21721,0.13188-0.32582,0.19782  c-0.128-0.24436-0.256-0.48873-0.384-0.73309c-0.22497,0.01551-0.44994,0.03103-0.6749,0.04655  c-0.05043-0.15903-0.10086-0.31806-0.15128-0.47709c-0.20557,0.00388-0.41116,0.00776-0.61673,0.01164  c0.07758-0.19006,0.15515-0.38012,0.23273-0.57018c-0.15127-0.06594-0.30254-0.13188-0.45381-0.19782  c-0.14739,0.24436-0.29479,0.48873-0.44218,0.73309c-0.10473,0-0.20947,0-0.31419,0  c-0.09309-0.11636-0.18619-0.23273-0.27928-0.34909c-0.14739,0.0737-0.29478,0.14739-0.44218,0.22109  c-0.08533-0.30255-0.17067-0.60509-0.256-0.90764c-0.16679,0-0.33358,0-0.50037,0c-0.09309,0.29091-0.18619,0.58182-0.27927,0.87273  c-0.14739-0.00776-0.29479-0.01552-0.44218-0.02327c-0.00775,0.22885-0.01551,0.4577-0.02327,0.68655  c-0.20558,0.02715-0.41116,0.0543-0.61674,0.08146c-0.06206-0.11249-0.12411-0.22497-0.18618-0.33746  c0.0737-0.15515,0.14739-0.3103,0.22109-0.46546c-0.10085-0.13576-0.2017-0.27151-0.30254-0.40727  c-0.09309,0.11249-0.18619,0.22497-0.27928,0.33746c-0.13187-0.0543-0.26376-0.10861-0.39564-0.16291  c-0.12024,0.22497-0.24048,0.44994-0.36073,0.67492c-0.17842-0.05431-0.35685-0.10861-0.53527-0.16291  c-0.00388-0.19782-0.00776-0.39564-0.01163-0.59346c-0.08921-0.07758-0.17844-0.15515-0.26765-0.23273  c-0.22884,0.0543-0.4577,0.10861-0.68655,0.16291c-0.08921-0.20558-0.17843-0.41115-0.26764-0.61673  c-0.12412-0.02715-0.24825-0.0543-0.37237-0.08146c-0.4034,0.39176-0.80679,0.78352-1.21018,1.17528  c-0.28316-0.128-0.56631-0.256-0.84946-0.384c0.07758-0.27152,0.15516-0.54304,0.23273-0.81455c-0.2754,0-0.55079,0-0.82619,0  c-0.12024-0.23661-0.24049-0.47322-0.36073-0.70982c0.0737-0.13964,0.1474-0.27927,0.22109-0.41891  c-0.09697-0.04267-0.19394-0.08533-0.29091-0.128c-0.12412,0.08921-0.24825,0.17842-0.37236,0.26764  c-0.41116-0.13188-0.82231-0.26376-1.23346-0.39564c-0.12412,0.23661-0.24824,0.47322-0.37237,0.70982  c-0.1474,0-0.29479,0-0.44218,0c-0.23661-0.24824-0.47321-0.49649-0.70982-0.74473c-0.3646,0.09309-0.72921,0.18618-1.09382,0.27927  c-0.44606-0.18618-0.89212-0.37237-1.33818-0.55855c-0.57794-0.05818-1.15589-0.11637-1.73383-0.17455  c-0.03103-0.33358-0.06206-0.66715-0.09309-1.00073c-0.13188-0.10473-0.26376-0.20946-0.39563-0.31418  c-0.00388-0.09309-0.00776-0.18618-0.01164-0.27927c-0.27927-0.12024-0.55855-0.24049-0.83783-0.36073  c-0.01551,0.20558-0.03103,0.41115-0.04654,0.61673c-0.08921,0.04267-0.17842,0.08533-0.26764,0.128  c-0.28315-0.24824-0.56631-0.49649-0.84946-0.74473c-0.128,0.21334-0.256,0.42667-0.384,0.64c-0.19394,0-0.38788,0-0.58182,0  c-0.50425-0.53528-1.00849-1.07055-1.51274-1.60583c-0.17455,0-0.34909,0-0.52364,0  c0.00291-5.41288,0.00582-10.82576,0.00873-16.23863c-6.9547-0.00776-13.90941-0.01552-20.86411-0.02327  c-0.00808,12.44645-0.01616,24.8929-0.02424,37.33936C21.68664,44.49823,13.63423,44.49565,5.58182,44.49306z"/><text x="0" y="115" fill="#000000" font-size="5px" font-weight="bold" font-family="'Helvetica Neue', Helvetica, Arial-Unicode, Arial, Sans-serif"></text><text x="0" y="120" fill="#000000" font-size="5px" font-weight="bold" font-family="'Helvetica Neue', Helvetica, Arial-Unicode, Arial, Sans-serif"></text></svg>