<svg xmlns="http://www.w3.org/2000/svg" xmlns:xlink="http://www.w3.org/1999/xlink" version="1.1" x="0px" y="0px" viewBox="0 0 100 125" style="enable-background:new 0 0 100 100;" xml:space="preserve"><line x1="89.6" y1="41.4" x2="89.6" y2="41.4"/><path d="M92.9,49.9c-0.5,0.2-0.9,0.5-1.4,0.7c-0.2,0.1-0.9,0.9-1.1,0.8c0.2-0.2,0.3-0.3,0.3-0.6c0.3,0.2,0.9-0.3,1.2-0.5  c0.4-0.2,0.7-0.4,1.1-0.5L92.9,49.9"/><path d="M89.5,52.3c0-0.3,0.2-0.3,0.3-0.5c0.1-0.3,0.3-0.4,0.6-0.3L89.5,52.3"/><path d="M89.1,52.7c0-0.1,0.1-0.2,0.2-0.2L89.1,52.7"/><path d="M88.6,53.3c0-0.3,0.3-0.4,0.5-0.6L88.6,53.3"/><path d="M87.9,54c0.2-0.2,0.3-0.5,0.6-0.6L87.9,54"/><path d="M84.1,56.7l0-0.1c0.3,0,1.4,0.3,1.2,0.7C84.9,57,84.6,56.9,84.1,56.7"/><path d="M85.4,57.4c0.1-0.2,0.3-0.5,0.3-0.7c0.2-0.1,0.8-0.9,0.7-1.1c0.3,0.1,0.3-0.2,0.3-0.5l0.1,0.1c0.3-0.5,0.7-0.8,1.1-1.2  c0,0.3-0.5,0.7-0.7,1c-0.3,0.3-0.5,0.7-0.7,1c-0.4,0.6-0.8,1.2-1,2l-0.2-0.5c0.1,0,0.1,0.1,0.2,0.1C85.3,57.5,85.4,57.5,85.4,57.4"/><path d="M90.9,32.3c0,0-0.1,0.7,0.1,0.8c-0.2,0.2-0.5,0-0.6-0.2l-0.1,0.2c-0.2-0.1-0.2-0.3,0-0.5c-0.2,0-0.3-0.2-0.4-0.3  C89.8,32.3,90.8,32.3,90.9,32.3z"/><path d="M95,41.9c-0.1-0.2-0.2-0.5-0.3-0.7c-0.1-0.3-0.3-0.7-0.5-1c-0.4-0.8-0.9-1.6-1.3-2.5c-0.3-0.8-0.7-1.6-0.9-2.5  c-0.3-1-0.5-1.9-0.7-2.9l-0.3,0c0,0,0,0.1,0,0.1c0.1,0.1,0.1,0.4,0.1,0.5c0,0.3,0.1,0.4,0.3,0.7c-0.4,0.1,0.4,0.4,0.1,0.6  c0.3,0.2,0.3,0.8,0.3,1.1c0,0.3,0.1,0.3,0.2,0.5c0,0.2,0.1,0.3,0.3,0.4c0,0,0,0.1-0.1,0.1c0.3,0,0.6,1.2,0.6,1.6l-0.1-0.2  c-0.1,0.3,0.1,1.3,0.6,0.9c0.1,0.3,0.1,0.6,0.2,0.9c0.1,0.2,0.2,0.2,0.4,0.3c0.1,0.1,0.2,0.3,0.3,0.5c0.3,0.5,0.3,1.2,0.6,1.6  l0.1-0.1C94.8,41.9,95,41.9,95,41.9z"/><path d="M93,42.6c-0.1-0.3,0.2-0.7,0.1-1c0-0.1-0.3-0.2-0.2-0.4c0-0.2,0.1-0.4-0.1-0.5c-0.2-0.2-0.1-0.6-0.5-0.7  c-0.2,0.3,0-0.1-0.1-0.2c-0.1-0.1-0.4-0.1-0.5-0.2c0.1,0.2,0.1,0.4-0.2,0.4c0.3,0,0.4,0.1,0.7,0.3c-0.1,0-0.2,0-0.3,0  c-0.2-0.1-0.1,0.1-0.2,0.1c-0.2-0.1-0.3-0.3-0.5-0.1c0.1,0.1,0.2,0.4,0.3,0.5c0.1,0.1,0.2,0,0.4,0c-0.1,0.1-0.1,0.2-0.1,0.3  c-0.1-0.2-0.3-0.3-0.4-0.2c0-0.2,0-0.5-0.2-0.3c0,0,0,0,0,0c0,0,0.1-0.1,0.1-0.1c-0.3-0.2-0.6,0.4-0.6,0.6c0,0.1-0.1,0-0.1,0.1  c0,0.1,0.1,0.2,0.1,0.3c0,0.2-0.2,0.3-0.1,0.5c0.1,0.3,0,2.1-0.5,2c0-0.2,0-0.2-0.2-0.3c-0.1,0.2-0.7,0.1-0.7-0.2  c-0.1,0-0.2,0-0.2-0.1c0.1,0.1,0.3-0.1,0.2,0.1c-0.1,0.3,0.6,0.1,0.6-0.1c-0.2-0.2,0.3-0.5,0-0.8c0,0.1-0.2,0-0.2,0.1  c-0.1-0.2-0.8-0.4-0.3-0.6c0.1,0.2,0.4,0.7,0.5,0.2c0,0-0.1-0.6,0-0.9l0,0c-0.2-0.1-0.4-0.1-0.4-0.4c0,0.3,0.5,0.4,0.5,0.1  c0-0.3,0.4-0.6,0.2-0.8c0,0-0.1,0.1-0.1,0.1c0,0-0.1-0.1-0.1-0.1c-0.1,0.1-0.2,0.2-0.2,0.3c-0.2-0.2-0.3-0.5-0.6-0.5  c0.3-0.1,0.4,0.5,0.7,0.2c-0.2-0.1-0.2-0.2-0.1-0.4c0.1,0.1,0.3,0.3,0.4,0.1c0.1-0.2,0-0.2-0.1-0.3c-0.4-0.3-0.6-0.2-1.1-0.2  c-0.7,0-1.3,0.3-1.8,0.7c0.3,0,0.4,0.3,0.6,0.3c-0.1,0-0.6-0.1-0.6-0.1c0.1-0.3-0.6,0-0.7,0c0,0,0.1-0.1,0.1-0.1  c0,0-0.1-0.1-0.1-0.1l0.1,0c-0.3-0.3-0.2-0.4-0.6-0.2c-0.3,0.1-0.6,0.3-1,0.4c-0.3,0.1-1.6,0.1-1.7,0.2c-0.1-0.2-0.2,0-0.4,0  c0.1-0.3,0.2-0.4,0.4-0.6c0.2-0.2,0.1-0.4-0.2-0.3c0.3-0.3-0.1-0.5-0.2-0.7c-0.1-0.3-0.1-0.5-0.2-0.9c-0.1-0.3-0.1-1.5,0.2-1.4  c0-0.2,0.4-0.6,0.2-0.8c-0.3-0.3-0.5-0.6-0.8-0.8C82.1,35,81.8,35,81.6,35c-0.3-0.1-0.7-0.1-0.9-0.3c0.3,0,0.6,0.1,0.9,0.2  c0.2,0.2,0.5,0,0.7,0.2c0.2,0.2,0.5,0.5,0.7,0.7l0-0.2c0.1,0.1,0.2,0.2,0.3,0.2c-0.1,0.1,0.1,0.3,0,0.5c-0.1,0.2-0.3,0.5-0.4,0.7  c0,0.2-0.2,1.4,0.3,1.3c0,0.3-0.1,0.6,0.1,0.8c0.2,0.2,0.5,0.1,0.6-0.1c-0.1-0.1-0.2-0.1-0.2-0.2c0.4,0,0.5,0.3,0.6,0.6  c0.1,0.2,0.5,0.1,0.7,0.1c0.5-0.2,0.7-0.4,1-0.8c-0.3,0-0.6-0.3-0.8-0.2c0.2-0.2,0.4,0.1,0.7,0.1c-0.1-0.1-0.2-0.2-0.1-0.4  c0.2,0.4,0.2,0.4,0.6,0.3c0.2,0,0.5,0,0.6-0.2c-0.1,0-0.2-0.1-0.3-0.1c-0.1,0-0.1-0.1-0.1-0.2c-0.2-0.1-0.2,0.1-0.4,0  c-0.2-0.2-0.6-0.7-0.8-0.7l0.1-0.2c0,0,0,0.1,0,0.1c0.3,0,0.5,0.4,0.7,0.2c0,0.5,0.5,0.4,0.8,0.6c0.3,0.2,0.9,0.6,1.2,0.3  c-0.3-0.2-0.4-0.3-0.5-0.6c-0.1-0.2-0.3-0.3-0.5-0.2c0.1,0,0.1,0,0.2-0.1c-0.1-0.2-0.2-0.3-0.1-0.5c0.1,0.2,0.4,0.4,0.4,0.5  c0.2,0,0.1,0,0.2-0.1c0.1,0.7,0.6,0.8,1.2,0.6c-0.3-0.1-0.2-0.2-0.4-0.3c0.3-0.1,0.4,0.3,0.7,0.3c0.4-0.2,0.3-0.2,0.2-0.6  c0,0,0,0.1-0.1,0.1c0,0-0.1,0-0.1-0.1c0.4-0.3-0.5-0.5-0.7-0.4c0.1-0.1,0.2-0.2,0.3-0.1c0-0.1-0.1-0.3-0.2-0.4  c-0.1-0.1-0.3,0-0.4-0.2c-0.1-0.2-0.4-0.3-0.4-0.4c0.1,0,0.1,0,0.1-0.1c0,0.1,0,0.1,0,0.2c0.1-0.1,0.7,0,0.7,0.1  c0.2,0.3,0.4,0.6,0.8,0.7c0.2,0,0.4,0.5,0.6,0.6c0.3,0.1,0.6,0.1,0.9,0.2c-0.1-0.1-0.3-0.1-0.4-0.4c0,0-0.1,0-0.1,0.1  c0-0.2-0.2-0.3-0.4-0.2c0.1-0.1,0.1-0.2,0.1-0.3c0.1,0.1,0.2,0.1,0.3,0.2c0.1-0.2,0.1-0.5-0.2-0.5c0.2-0.1,0.1-0.2,0-0.4  c0.3-0.1,0-0.1-0.1-0.3c-0.1,0,0-0.1,0-0.1c-0.2,0-0.4-0.1-0.3-0.3c0.1,0.2,0.2,0.2,0.4,0.1c0,0.1,0.1,0.2,0.1,0.4  c0.1-0.1,0.2-0.1,0.2-0.1c0,0.2-0.2,0.7,0.3,0.7c-0.2,0.4,0.5,0.9,0.5,1.3c0,0.3,0.4,1.1,0.8,0.8c-0.2-0.2-0.1-0.4-0.2-0.6  c-0.1-0.1-0.3-0.5-0.3-0.5c-0.1,0-0.4-1-0.5-1.2c0-0.1,0-0.2,0-0.3c0,0-0.1-0.1-0.2-0.2c-0.1-0.3-0.2-0.4-0.3-0.6  c-0.2-0.3,0-0.3,0-0.6c0-0.2,0-0.5-0.3-0.5c0,0,0.1,0,0.1,0c0,0.1,0,0.1-0.1,0.2c0.2,0.1,0.2,0.4,0,0.2c0,0.1,0.1,0.3,0.1,0.4  c-0.3,0-0.5-0.5-0.6-0.7c0.1-0.1,0.3-0.1,0.4,0.1c0-0.4-0.4-0.1-0.6-0.5c-0.2-0.5-0.2-0.6-0.7-0.5c0-0.1,0-0.2,0.1-0.3c0,0,0,0,0,0  c0,0,0.1,0.2,0.3,0.1c0-0.1-0.2-0.1-0.2-0.1c0,0,0.1-0.1,0.1-0.2c0.3,0.4,0.1-0.1,0.1-0.3c0,0-4.6,0.2-5.7,0.2  c-14.6,0.3-29.2,1-43.8,0.2c-2.4-0.1-4.8-0.3-7.2-0.5c0,0-0.2,0.5-0.4,0.8l0.1,0.9c-0.2,0.1-0.2,0.1-0.2,0.4c0,0.2-0.1,0.3-0.2,0.4  c-0.1,0.1,0.1,0.4,0.1,0.5c0,0.2,0.1,0.3,0.2,0.4c-0.3,0-0.5,0-0.7-0.2c-0.1-0.1-0.1-0.1-0.3-0.1c-0.1,0.1-0.2,0.1-0.3,0.2  c-0.2,0.1-0.5,0.3-0.7,0.5c-0.1,0.2-0.3,0.4-0.4,0.7c-0.3,0.5-0.6,1.1-1,1.6c0,0-0.2-0.1-0.3,0c-0.2,0.1-0.2,0.2-0.4,0.2  c-0.1,0-0.3,0.1-0.3-0.1c-0.1-0.2-0.1-0.3-0.2-0.5c-0.1,0-0.3,0.1-0.4,0c-0.1-0.1-0.2-0.2-0.3-0.1c-0.1,0.1-0.2,0.2-0.3,0.2  c-0.1,0-0.1,0-0.1,0.1c-0.1,0-0.2,0-0.2-0.1c-0.1,0-0.3,0.1-0.4,0.2c-0.1,0-0.2,0-0.3,0c-0.2,0.2-0.5,0.3-0.6,0.5  c-0.3,0.5-0.6,1.1-1.1,1.3c-0.1,0-0.3,0.2-0.4,0.2c-0.1-0.1-0.3-0.1-0.4-0.2c0,0,0-0.4,0-0.4c0-0.1,0.1-0.3,0.2-0.4  c-0.1-0.1-0.2-0.1-0.2-0.2c0-0.1-0.1-0.2-0.2-0.2c-0.3,0.2-0.6,0.3-0.8,0.5c-0.2,0.1-0.5,0.2-0.5,0.4c0,0.2,0,0.2-0.1,0.4  c-0.1,0.1-0.2,0.2-0.1,0.3c-0.1,0-0.2,0.1-0.2,0c-0.1-0.1-0.2-0.2-0.3-0.2c-0.2-0.1-0.4,0-0.5,0.3l-0.2,0l0.2,0.7  c-0.3,0.1-0.3,0.1-0.3,0.4c0,0-0.3,0.3-0.3,0.4c-0.1,0.1-0.3,0.4-0.4,0.5c-0.2,0.1-0.3-0.1-0.5-0.2c-0.2,0-0.3-0.1-0.6,0  c-0.2,0.1-0.4,0.2-0.6,0.2c-0.2,0-0.2,0.3-0.3,0.4c-0.1,0.1-0.4,0-0.5,0c-0.3,0-0.2,0.3-0.3,0.4c-0.1,0.2-0.3,0.3-0.4,0.5  c-0.1,0.1-0.4-0.2-0.5-0.1c-0.2,0.2-0.3,0.3-0.5,0.5c-0.1,0.1-0.4,0.1-0.5,0.2c-0.2,0.1-0.4,0.3-0.5,0.5c-0.2,0.2-0.8,0.1-1,0  c-0.2-0.1-0.2-0.1-0.4,0c-0.1,0-0.2,0.1-0.3,0.1c-0.4,0-0.7,0-1.1,0c-0.2,0-0.5,0.3-0.7,0.4c-0.1,0.1-0.3,0-0.4,0.1  c-0.2,0-0.2,0.1-0.4,0.2c-0.1,0.1,0,0.2-0.1,0.3c-0.1,0.1-0.3,0.2-0.4,0.2c-0.2,0-0.1,0-0.3,0.1c-0.2,0.2-0.3,0.3-0.5,0.5  c-0.1,0.1,0,0.2,0,0.4c0,0.2,0,0.2-0.1,0.4c-0.2,0.2-0.2,0.5,0,0.8c-0.2,0.2-0.3,0.3-0.5,0.4c-0.1,0-0.2,0.2-0.3,0.1  c-0.2,0-0.2,0-0.3,0.1c-0.1,0.1-0.2-0.1-0.3-0.1c-0.1,0-0.3,0.1-0.4,0.1c-0.1,0-0.1-0.2-0.2-0.2c0-0.1-0.1-0.1-0.2-0.1L5.5,49  l-0.5,3l7.2,0.4l0,0l5.4,0.1l3.4-1l0,0.3c0.1,0,0.1,0,0.2,0c0.1,0,0-0.1,0.1-0.1c0.1-0.1,0.2-0.1,0.3-0.2c0.1,0,0.3-0.1,0.3-0.2  c0-0.1,0-0.2,0.1-0.3l0.1,0.1c0.1-0.1,0.2-0.2,0.3-0.1c0.1,0,0.1-0.1,0.2-0.1c0.3-0.1,0.4,0,0.6-0.3c0.1-0.1,0.2,0,0.3,0  c0,0,0.2-0.1,0.2-0.1c0.2,0,0.2,0,0.3-0.1c0-0.1,0.2,0,0.3,0l0,0.2c0.2,0.1,0.2-0.1,0.3-0.3c0.1-0.1,0.2-0.2,0.4-0.3l0.2,0.5  c0.2-0.1,0.3-0.1,0.5-0.1l0.4-0.1l12.7,0.9l-0.1,0.2l0.1,0.1l0,0.2l-0.2,0.1l-0.1,0.4l0.2,0.3l1.2-0.8l1.5,2.2l-0.2,1.5l11.6,0.2  l11.5,11.9c0.1,0,0.2,0.1,0.3,0.2c0.2-0.4,1.3-0.5,1.7-0.6c0,0,0-0.1,0-0.1c0.3,0,0.2-0.2,0.3-0.4c0,0.2,0.1,0.2,0.2,0.3  c-0.1,0.1-0.2,0.2-0.3,0.3c0.3,0,2-0.1,1.5-0.7c0.2,0,0.3,0.2,0.2,0.4c0.1,0,0.1,0,0.2,0L68,67c0.2,0.2,0.8,0,1.1,0  c0.4,0,0.7,0.2,1.1,0.3c0,0,0-0.1,0-0.1c-0.4-0.1,0.1-0.2,0.2-0.4c0.1-0.2,0.2-0.4,0.3-0.6c0.2-0.2,0.1-0.5,0.1-0.8  c0.1-0.3,0.1-0.5,0-0.8c-0.1-0.3-0.1-0.6-0.2-0.9c0-0.1,0.1-0.4,0.2-0.2c0.2,0.5,0.3,0.9,0.3,1.5c0.5,0,0.5-0.6,0.6-0.9  c0.1-0.2,0.3-0.6,0.1-0.8c0.3,0.1,0.4-0.2,0.2-0.4c0.3,0.2,1.2-1,0.8-1.1c0.3,0.1,0.9-0.6,0.8-0.9c0.2,0.3,0.6-0.3,0.8-0.5  c-0.1-0.1-0.1-0.2-0.1-0.3c0.1,0.2,0.4,0.2,0.4,0c0.2,0.1,0.4-0.3,0.6-0.4c0.1-0.1,0.1-0.1,0.2-0.2c0.1,0,0.2-0.2,0.2-0.2  c0.1-0.1,0.2,0.1,0.3,0c0,0,0.2-0.2,0.1-0.1c0.2-0.1,0.6,0,0.5-0.3c-0.1,0-0.1,0-0.2,0c0-0.2,0.4,0,0.3-0.3  c-0.1-0.2-0.3-0.1-0.4-0.3c-0.1,0.1-0.2,0.1-0.2,0.1c-0.1-0.2-0.1-0.6-0.4-0.5c0.3-0.3,0.6,0.1,0.8-0.3c0.2-0.3-0.4-0.6-0.4-0.9  L76,56.9c0.1-0.3,0.1-0.5,0-0.8c0,0,0,0,0.1,0c0,0.1,0.1,0.2,0.1,0.3c0.1-0.2,0.3-0.1,0.5-0.1l-0.3,0.2c0.3,0.1,0.3,0.5,0.5,0.3  L76.6,57c0.3,0,0.3,0.5,0.7,0.5c-0.3,0-0.4,0.1-0.5,0.4c-0.1,0.2-0.4,0.1-0.4,0.4c0.1-0.1,0.2-0.1,0.3,0c0,0,0-0.1,0.1-0.1  c0,0.2,0.1,0.3,0.3,0.2c0,0.3,0.2,0.4,0.4,0.2c0.2-0.2,1.1-0.8,0.8-1.2c0.1,0,0.2,0.1,0.2,0.2c0.2-0.1,0.7-0.4,0.3-0.5  c0.1-0.2-0.1-0.3-0.2-0.3c0.2,0,0.3,0.4,0.5,0.4c0,0,0.3-0.3,0.3-0.3c0.1-0.3-0.1-0.3-0.2-0.5c-0.1-0.2,0-0.3-0.1-0.5  c0.1,0,0.2,0.1,0.3,0.2c0,0,0,0,0.1-0.1c0,0.3,0.1,0.5,0.4,0.6c-0.2,0-0.2,0.2-0.2,0.3c-0.1,0-0.1,0.1-0.2,0.1  c0.3,0.3,0.6-0.3,0.8,0c0.1-0.1,0.2-0.1,0.2-0.2c0.2,0.1,0.3-0.1,0.4-0.2c0.2-0.1,0.4,0.1,0.3-0.2c0.1,0.1,1,0,1.2,0  c0.2,0,1.3,0.2,1.4-0.1c-0.2,0.1-0.3,0-0.3-0.2l0.2,0.1c0.1-0.2-0.1-0.3-0.3-0.3c-0.2,0-0.1,0.4-0.4,0.1c0.2-0.2,0.3-0.3,0.5-0.3  c0.3,0,0.3,0,0.3-0.3c0,0.3,0.1,0.4,0.3,0.6c0.1,0.1-0.1,0.4-0.1,0.5c0.2,0,0.4,0,0.6,0.1c0-0.1,0-0.2-0.2-0.2  c0.3-0.2,0.2-0.9,0.1-1.2c0.2,0.1,0.2,0.4,0.4,0.5c0-0.1,0.1-0.1,0.1-0.2c0.2,0.3-0.2,0.3-0.2,0.5c0,0.1,0.2,0.1,0.2,0.3  c0.1,0,0.2,0,0.2-0.1c0.1,0.2,0.2,0.2,0.3,0c0.2,0.3,0.1-0.2,0-0.4c0.1,0,0.2-0.2,0.2-0.2l-0.1-0.2c0.1,0,0.2-0.1,0.3-0.2  c0,0-0.2,0.7,0,0.5c0.2-0.1,0.3-0.7,0.1-0.8c0,0.1,0.1,0.1,0.2,0.1c0-0.1,0.1-0.2,0.1-0.3c0.1,0,0.1,0.1,0.2,0.1  c-0.1-0.3,0.1-0.6,0.1-0.8c0.1,0.1,0.1,0.8,0.2,0.2l0.1,0.1c0.2-0.1,0.5-0.2,0.6-0.5c-0.1,0-0.2,0-0.3,0c0,0,0.1-0.1,0.1-0.2  c0,0-0.1,0-0.1,0c-0.1,0.1-0.2,0.1-0.3,0c0.3-0.2,0.5-0.1,0.8,0c-0.1-0.1,0-0.2,0.1-0.3l-0.1-0.1c0.4,0-0.1-0.6-0.3-0.8  c0.1,0,0.2,0,0.2,0.2c0.1-0.3-0.2-0.3-0.4-0.4l0.1,0.2L87,52.2c0.1,0.2,0.5,0.6,0.4,0.8l-0.1-0.2c-0.1,0.2-0.4,0-0.5-0.1l0.1,0.3  c-0.2-0.1-0.2,0.1-0.1,0.3l-0.3,0c0.1-0.1,0.2-0.2,0.1-0.3c-0.1,0.1-0.3,0.2-0.3,0.2c-0.1,0.2,0.1,0.3,0,0.5c0-0.2-0.1-0.3-0.3-0.4  c0.1,0,0.1-0.1,0.1-0.2c0,0-0.1,0-0.1-0.1c0.1-0.2,0.2-0.1,0.3,0c0-0.1,0-0.1,0-0.1c0,0,0.1,0,0.1,0c0,0,0-0.3,0-0.4  c0,0-0.1,0-0.1,0c-0.1-0.2-0.1-0.5,0.2-0.4c-0.3-0.1-0.1-0.3-0.2-0.4c-0.1-0.1-0.3-0.2-0.4-0.2c0,0.1-0.1,0.2-0.1,0.2  c0.1-0.1,0.2,0.2,0.3,0.2h-0.2c0.2,0,0.2,0.1,0.1,0.3c-0.1-0.1-0.2-0.2-0.2-0.3c-0.1,0.2-0.1,0.3,0.1,0.4c-0.4,0,0.2,0.5-0.2,0.8  l0-0.4l-0.3,0.1c0-0.1,0.1-0.1,0.2-0.2c0,0-0.1-0.1-0.1-0.1c0,0,0-0.1,0.1-0.1c-0.2,0-0.4,0-0.4,0.2c-0.4-0.2-0.2,0.3-0.1,0.4  c0.1,0.2,0.3,0.3,0.4,0.3c-0.4,0,0,0.4,0.1,0.6c-0.2-0.1-0.3-0.4-0.5-0.3c0.3-0.2-0.1-0.5-0.3-0.4c0.1-0.1,0.1-0.2,0-0.2  c0.2-0.3-0.3-0.5-0.5-0.2c-0.2-0.2,0.1,0.5,0.1,0.7c0,0-0.1,0-0.1-0.1c-0.2,0.2-0.1,0.3,0,0.4c-0.1,0-0.2,0.1-0.4,0.1  c0.3-0.1,0.3-0.7-0.1-0.7l0,0c-0.3-0.1-0.3,0.3-0.4,0.5c-0.3-0.4-0.3,0.6-0.3,0.8c-0.1-0.2-0.1-0.4-0.1-0.5L82.7,54  c0.1-0.1,0.2-0.2,0.2-0.3c-0.4-0.2-0.5-0.3-0.9-0.2c0,0.1,0.1,0.2,0.1,0.4L82,53.7l-0.1,0.3c-0.1-0.2,0-0.6,0.1-0.7  c-0.7-0.1-0.2,0.2-0.6,0.6c0-0.2,0-0.3,0-0.5c-0.1,0-0.1,0-0.2,0c0.1,0,0.2-0.1,0.2-0.2c0,0,0.1,0,0.1,0c-0.3-0.2-0.8-0.4-0.9-0.7  c-0.1-0.4-0.2-0.7-0.4-1.1L80,51.9v-0.1c-1,0.2-0.6-0.2-0.8,0.1c-0.1-0.1-0.1-0.1,0-0.2c0.4,0.5,0.7-0.3,0.9-0.3  c-0.2-0.2-0.2-0.6-0.5-0.5c0,0,0.1-0.2,0.1-0.3l0.4,0.2c0,0,0.5,0.2,0.4,0.6c0,0.1,0.3,0.6,0.4,0.6c0.1-0.1,0.1-0.2,0.2-0.3L81,52.1  l0.3-0.2c-0.1,0.1-0.1,0.2-0.2,0.3c0.3,0,0.4,0.2,0.6,0.4l0-0.3c0.2,0.1,0,0.2,0,0.3c0.1,0.1,0.3,0.2,0.4,0.3  c0.3,0.2,0.6,0.1,0.7-0.3c-0.2,0-0.3-0.1-0.3-0.3l0.1,0.1c0.1,0.1,0.1,0,0.2,0c0,0.1,0,0.2,0.1,0.2c0.1,0,0.5-0.1,0.5-0.3  c0-0.1-0.3,0-0.4-0.1l0.2,0l0.1,0l0-0.3c0.1,0,0.2,0.2,0.2,0.2s0.4-0.1,0.6-0.3c0,0-0.1-0.1-0.1-0.1c0.2,0.1,0.6-0.1,0.6-0.4  c-0.1,0-0.2,0.1-0.3,0.1c0,0-0.2-0.1-0.3,0c0-0.1,0-0.1-0.2-0.1c0.1,0,0.2-0.1,0.2-0.3c0,0.1,0.3,0,0.4,0.1l0.1,0l0.1-0.2  c0.1,0.1,0.1,0.1,0,0.2c0.3,0,0.2-0.2,0-0.3c0.1,0.1,0.2,0.1,0.3,0.1c0-0.2,0.1-0.4,0.2-0.5c-0.2,0-0.3-0.5-0.5-0.2  c0.1,0,0.1,0.1,0,0.1l0.2,0l0,0.3l-0.1-0.2L84.4,51c0-0.1,0-0.4,0-0.5c-0.2,0-0.3,0-0.3,0.2l0-0.2c-0.1,0-0.1,0-0.2,0  c0,0,0-0.1,0-0.1c-0.2,0.1-0.1,0.4-0.4,0.3c0,0,0,0.1,0,0.1c-0.2-0.1-0.5-0.1-0.3,0.2c-0.2-0.1-0.2-0.2,0-0.3  c-0.1,0.1-0.2,0.1-0.3,0c0.1-0.1,0.3-0.2,0.4,0l0-0.2l0.1,0.1c0.1-0.1,0.4-0.2,0.3-0.4c0,0,0.1,0,0.1,0c0.1-0.2,0-0.3,0-0.3  c0.2,0,0.3,0.1,0.1,0.2c0.1,0.1,0.4,0.2,0.4,0l0.2,0c-0.1-0.1-0.3-0.2-0.3-0.2l0.4,0l-0.2-0.2c0.3,0,0.3,0.2,0.5,0.3  c0,0,0.1,0,0.2-0.1c0,0.1,0,0.2,0.1,0.2c0-0.1,0.1-0.2,0-0.3c-0.2,0-0.2-0.3-0.5-0.1c0.1-0.1,0-0.2-0.1-0.3c0.1,0,0.3,0.1,0.3,0  c0.1,0.1,0.4,0.2,0.6,0.3c0-0.3-0.4-0.1-0.5-0.4l0,0.1v-0.1l0.3,0.1c0-0.1,0.2-0.1,0.3-0.1c0-0.1,0-0.2-0.2-0.2  c0.1-0.1,0.3-0.1,0.3,0c-0.1-0.1-0.1-0.2,0-0.3c0,0-0.1-0.1-0.1-0.1c0,0.2-0.3,0-0.3,0.2c0-0.3,0.2-0.4,0.2-0.4  c-0.1-0.1-0.3-0.1-0.5-0.1c0.1,0.1,0.1,0.2,0.2,0.3c0,0,0,0-0.1,0c0,0-0.1,0.1-0.1,0.1c-0.1-0.1-0.1-0.1,0-0.3c-0.1,0-0.1,0.1-0.2,0  c0.1,0,0.1-0.1,0.2-0.1l-0.2-0.1c-0.2,0-0.9-0.1-0.5,0.2c-0.4,0.1,0,0.2,0.2,0.3l-0.3,0l0.2,0.2c-0.2,0-0.3-0.1-0.4-0.1  c-0.2,0-0.4,0.1-0.5-0.1c0.1,0,0.2,0.2,0.4,0.1c0.2-0.1,0.1-0.3-0.1-0.2l0.2-0.1c-0.1-0.1-0.1-0.1,0-0.2c0,0-0.2,0-0.3,0  c0.2,0,0.3-0.1,0.2-0.2c-0.2,0.1-0.8-0.2-0.6,0.2c-0.1-0.1-0.2,0-0.2,0.1c-0.1-0.1-0.1-0.2,0.1-0.3c-0.2-0.1-0.3,0-0.4,0.1  c-0.1,0-0.3,0.1-0.3,0.3c-0.1-0.1-0.1-0.1-0.2,0l0.1,0.3l-0.2-0.3c0.2,0,0.4-0.2,0.5-0.4c0.1-0.1,0.3-0.2,0.5-0.2  c-0.2-0.2-0.8-0.1-0.8-0.3c-0.2,0.1-0.3,0-0.4-0.1l0,0.3c-0.1-0.1-0.3,0-0.4,0.1c0.7-0.4,0.1-0.7-0.4-0.8C81,47,81.1,46.8,80.8,47  c-0.3,0.1,0,0.3-0.2,0.5c0-0.2-0.1-0.2-0.1-0.5c0-0.1-0.1-0.3-0.1-0.4c-0.2-0.2-0.6-0.4-0.9-0.5c0.2-0.1,0.3,0.1,0.5,0.2  c-0.1-0.4-0.5-0.6-0.9-0.7c0.1,0,0.2,0,0.1-0.1c0.1,0.2,0.4,0.2,0.6,0.3c0,0.2,0.5,0.7,0.8,0.7c0-0.1,0-0.2,0-0.3  c0.1,0.1,0.1,0.3,0.2,0.4c0.1,0,0.2-0.1,0.4-0.1c-0.1,0-0.1,0-0.2,0.1c0.1,0.3,0.5,0.2,0.7,0.1c0,0,0,0-0.1,0.1  c0.4,0.4,0.5-0.4,0.6-0.7c0,0.2,0,0.3-0.1,0.5c0.1,0,0.2,0,0.3,0c-0.5,0.1-0.1,0.4,0.1,0.6c0,0,0-0.1,0-0.1c0,0,0,0.1,0.1,0.2  c0.2-0.2,0.4-0.1,0.6-0.3c-0.1,0.2,0.1,0.2,0.3,0.2l-0.1-0.4l0.2,0.3l0.1-0.3c0,0.1,0,0.1,0.2,0.2c-0.2,0,0.3,0.5,0.6,0.5l-0.1-0.2  l-0.1,0l-0.2-0.1c0.1-0.1,0.1-0.1,0.2,0c0-0.4-0.3-0.3-0.4-0.5l0.3,0c0.2-0.3-0.1-0.4-0.3-0.6l0,0.1c0,0-0.4,0-0.4,0.2  c-0.2-0.3-0.4-0.1-0.5-0.5c0.1,0.2,0.5,0.5,0.6,0.1c0.1,0,0.4-0.1,0.6-0.2c0,0-0.2-0.2-0.2-0.2c0,0-0.4-0.1-0.5-0.3  c0.1,0.1,0.1,0.1,0.2,0.1c0-0.1-0.1-0.3,0.1-0.4c-0.2,0.3,0.2,0.3,0.2,0.3l0.4,0l0,0.1l0.5,0.1l0.1-0.3c0,0.1,0,0.1,0,0.2  c0.2,0.1,0.5-0.1,0.6-0.3l-0.2-0.1l0.1-0.1c0.2,0.2,0.4,0.5,0.1,0.8c0.1,0.1,0.2,0.1,0.3,0.2c-0.2,0.1-0.6-0.3-0.5,0.2  c-0.1-0.4-1-0.3-1-0.3c0.3,0.1,0.3,0.3,0.3,0.5c0.1,0,0.1-0.1,0.1-0.2l0.3,0c-0.1,0.3,0.3,0.1,0.3,0.4c0,0-0.4-0.1-0.6,0.1  c0,0-0.1,0-0.1,0c0.1,0.2,0.3,0,0.4,0.2c0-0.1,0-0.1,0-0.2c0.1,0.1,0.2,0.1,0.3,0.3c-0.1,0-0.2,0-0.2-0.1L85,47.3l0.3,0.1l-0.1,0.1  l0.4,0.2c-0.1-0.1-0.2-0.2-0.1-0.3c-0.1,0-0.1-0.1-0.1-0.2c0.2,0.2,0.4,0,0.1-0.2l0.2,0.1l0-0.2c0.2,0.2,0,0.4,0.1,0.5l0-0.1  l0.1,0.1c-0.1-0.2,0-0.3,0.1-0.3c0,0-0.1-0.1-0.1-0.1l0.3,0c-0.1-0.1-0.2,0-0.2-0.2c0,0-0.1,0-0.1,0.1l0.1-0.2l-0.2,0  c0.1-0.1,0.2-0.1,0.3,0.1c0.1-0.2,0.2-0.2,0.3,0c-0.1,0-0.1,0-0.2,0c0,0.1,0,0.1,0,0.2c0,0,0.2,0.3,0.3,0.6l-0.2-0.1  c0.1,0.1,0.3,0.4,0.3,0.5c-0.1,0.2-0.4,0-0.5,0l-0.1,0.2c0,0,0.1-0.1,0.2,0c-0.1,0,0,0.1,0,0.2C86.5,47.7,87,48,87,48  c-0.1-0.2-0.3-0.4,0-0.5l-0.1,0l0-0.2c0,0,0.2,0.4,0.4,0.4c0,0,0.1,0.2,0.3,0.2c0,0.1-0.2,0.1-0.2,0.1c0.1,0,0.2,0,0.3,0.1  c0.2-0.1-0.1-0.9,0.3-0.7c-0.3,0.1-0.2,0.4,0.1,0.4c-0.1,0.1,0,0.1,0,0.3l0.1-0.1c0.1,0.1,0.8-0.1,0.5,0.2c0.2,0,0.1-0.1,0.3-0.2  c-0.2-0.3,0.2-0.1,0.3-0.2c0.2-0.2,0.3-0.1,0.4-0.3c-0.4,0.1-0.2-0.3,0-0.4c0,0,0-0.1-0.1-0.1l0.2,0c-0.1-0.1-0.2-0.1-0.1-0.2  c0.1,0.1,0.2,0.1,0.3,0.1c-0.1,0.4,0.2,0.2,0.1-0.1c-0.1-0.2,0.4-0.3,0-0.5c0.2,0.1,0.3-0.2,0.5-0.3c-0.1-0.1-0.2-0.2-0.3-0.2  c0.1,0,0-0.1,0.2-0.1c0,0,0-0.1,0-0.1c0.1,0,0.1,0.1,0.2,0.1c0.1-0.3,0.5-0.3,0.5-0.5l-0.2,0.1c0-0.3,0.3-0.3,0.4-0.4  c-0.1-0.1-0.2-0.2-0.2-0.3c0.3,0.1,0.2-0.4,0.1-0.5c0.1,0.1,0.2,0.2,0.3,0.2c-0.1,0.1-0.2,0.2,0,0.3c-0.1,0.3,0.4,0.4,0.5,0.1  c0.1,0.2,0,0.3-0.2,0.4c0.2,0,0.5-0.1,0.6-0.2c0,0-0.1-0.1-0.1-0.2c0.1-0.1,0.5-0.3,0.5-0.4c0-0.3-0.3-0.3-0.4-0.5  c0-0.1,0-0.1,0.1-0.2c-0.1,0-0.1-0.1-0.2-0.1c0.1-0.3,0.5-0.3,0.4,0C93.5,43.3,93,42.8,93,42.6C92.9,42.2,93,42.8,93,42.6  C92.9,42.2,93,42.8,93,42.6z"/><text x="0" y="115" fill="#000000" font-size="5px" font-weight="bold" font-family="'Helvetica Neue', Helvetica, Arial-Unicode, Arial, Sans-serif"></text><text x="0" y="120" fill="#000000" font-size="5px" font-weight="bold" font-family="'Helvetica Neue', Helvetica, Arial-Unicode, Arial, Sans-serif"></text></svg>