<svg xmlns="http://www.w3.org/2000/svg" xmlns:xlink="http://www.w3.org/1999/xlink" version="1.1" x="0px" y="0px" viewBox="7 0 86 125" enable-background="new 7 0 86 100" xml:space="preserve"><path d="M19.161,14.218l-0.012,0.173l-0.035,0.173c-0.188,0.261-0.378,0.52-0.57,0.778c-0.194,0.671-0.388,1.343-0.581,2.015  l-0.509,0.288l-0.718,0.119l-0.379-0.021l-0.335-0.146l-0.275-0.236l-0.182-0.226l-0.138-0.222l-0.328-0.733l-0.109-0.173  l-0.141-0.181l-0.159-0.163l-0.13-0.083l-0.135-0.049l-0.096-0.011l-0.102,0.008l-0.098,0.014l-0.087,0.027l-0.08,0.039  l-0.375,0.225l-0.085,0.032l-0.1,0.017h-0.108l-0.113-0.014l-0.195-0.066l-0.151-0.097l-0.124-0.097l-0.08-0.049l-0.055-0.024  l-0.783-0.229l-0.137-0.018l-0.123,0.031l-0.228,0.094l-0.849,0.223L9.98,15.934l-0.49,0.229l-0.063,0.059L9.37,16.284l-0.104,0.143  L9.222,16.51L9.2,16.663v0.205l0.048,0.41L9.24,17.483L9.174,17.68l-0.247,0.257l0.025,0.5l0.151,0.479l0.213,0.417l0.577,0.753  l0.093,0.16l0.031,0.206l-0.056,0.201l-0.257,0.458l-0.079,0.268L9.61,22.372l0.043,0.493l0.072,0.361l0.513,1.303l0.097,0.291  l-0.112,0.389l0.091,0.778l-0.309,0.868l0.249,0.715l0.268,0.861l0.465,0.935l0.143,0.423l-0.021,0.479l0.036,0.456l0.19,0.854  l0.071,0.716l-0.01,0.378l-0.134,0.712l-0.063,0.056l-0.173,0.087l-0.204,0.042h-0.198l-0.147,0.069l-0.049,0.243l0.067,0.167  l0.274,0.316l0.058,0.247l-0.056,0.167l-0.343,0.452l0.14,0.577c0.061,0.807,0.121,1.613,0.18,2.42l0.103,0.208l0.231,0.083  l0.207,0.104l0.167,0.247l0.116,0.282l0.055,0.215l0.027,0.5l0.187,0.337l0.308,0.195l0.396,0.059l0.956,1.962l0.064,0.073  l0.05,0.08l0.02,0.139l-0.02,0.42l0.02,0.118l0.176,0.292l0.194,0.149l0.158,0.177l0.071,0.361l0.025,0.01l0.146,0.174l-0.066,0.26  L14.26,44.94l-0.001,0.01l0.018,0.17l0.045,0.211l0.058,0.119l0.076,0.08l0.096,0.024l0.19,0.007l0.069,0.011l0.06,0.021l0.06,0.048  l0.113,0.129l0.071,0.063l0.292,0.191l0.073,0.063l0.219,0.26l1.221,0.889l0.25,0.136l0.141,0.122l0.172,0.19l0.467,0.303  l0.003,0.243l0.086,0.368l-0.122,0.239l-0.463,0.354l-0.491,0.482L16.5,50.275l-0.287,0.076l-1.493,1.065l-0.531,0.167l-0.236,0.246  l-0.152,0.327l-0.121,0.748l-0.17,0.342l-0.229,0.285l-0.241,0.234l-0.58,0.387l-0.228,0.242l-0.092,0.39l0.05,0.206l0.119,0.193  l0.286,0.336l0.02,0.156l-0.117,0.163l-0.267,0.216l0.028,0.264l0.002,0.453l0.053,0.424l0.18,0.188l0.051,0.094l0.016,0.205  l-0.016,0.209l-0.051,0.094l-0.077,0.086l0.063,0.19l0.16,0.32l-0.098,0.256l-0.169,0.198l-0.161,0.251l-0.072,0.431l0.01,0.374  l-0.014,0.195l-0.046,0.086l-0.13,0.104v0.229l0.081,0.383L11.98,61.32l-0.047,0.113l-0.199,0.262l-0.291,0.287l-0.146,0.182  l-0.138,0.43l-0.542,1.021l-0.262,0.197l-0.36,0.104l-0.718,0.058l-0.14,0.09l0.066,0.201l0.15,0.223l0.117,0.139l0.087,0.188  l-0.055,0.149l-0.177,0.19l-0.14,0.482l0.032,0.26l0.458,0.521l0.101,0.236l0.149,1.007L9.85,68.415l-0.222,0.651l-0.049,0.604  l0.438,0.611l0.577,0.229l1.329,0.099l0.51,0.276l0.409,0.595L12.9,71.7l-0.005,0.17l-0.033,0.17l-0.019,0.215l0.23,1.108  l-0.04,0.379l-0.167,0.226l-0.543,0.375l-0.19,0.229l-0.055,0.302l0.013,0.319l-0.016,0.313l-0.142,0.258l-0.619,0.143l-1.533-0.313  l-0.554,0.41c-0.055,0.218-0.109,0.433-0.164,0.649l-0.121,0.302l-0.171,0.292L8.77,77.25l-0.111,0.125l-0.333,0.291l0,0  l-0.077,0.122l-0.231,0.458L8.142,78.6l-0.019,0.375l-0.204,0.709H7.917l-0.184,0.19h0.001l0.077,0.03  c18.29,6.669,36.623,13.221,54.876,19.986l0.89,0.109h28.678v-0.083c0.004-27.933,0.009-55.864,0.011-83.796  c0-5.354,0.002-10.708,0.002-16.063C67.907,0.038,43.547,0.015,19.188,0C19.18,4.739,19.171,9.479,19.161,14.218z"/><text x="7" y="115" fill="#000000" font-size="5px" font-weight="bold" font-family="'Helvetica Neue', Helvetica, Arial-Unicode, Arial, Sans-serif"></text><text x="7" y="120" fill="#000000" font-size="5px" font-weight="bold" font-family="'Helvetica Neue', Helvetica, Arial-Unicode, Arial, Sans-serif"></text></svg>